<svg width="1659" height="995" viewBox="0 0 1659 995" fill="none" xmlns="http://www.w3.org/2000/svg">
<mask id="mask0_1_16" style="mask-type:luminance" maskUnits="userSpaceOnUse" x="0" y="0" width="1659" height="995">
<path d="M1659 0H0V995H1659V0Z" fill="white"/>
</mask>
<g mask="url(#mask0_1_16)">
<path d="M1235 358H1144V911H1235V358Z" fill="#DDDBD1"/>
<path d="M280 358H189V911H280V358Z" fill="#DDDBD1"/>
<path d="M228.591 193.26C411 119 596 107 730.5 107C865 107 1030.5 134.5 1192.59 193.26" stroke="#30383A" stroke-width="29"/>
<path d="M151.337 118.82L134.766 127.624C133.791 128.142 133.42 129.353 133.938 130.328L215.389 283.637C215.907 284.612 217.118 284.983 218.093 284.465L234.664 275.661C235.639 275.143 236.01 273.932 235.492 272.956L154.041 119.648C153.523 118.672 152.312 118.302 151.337 118.82Z" fill="#DDDBD1"/>
<path d="M1272.52 118.82L1289.09 127.624C1290.07 128.142 1290.44 129.353 1289.92 130.328L1208.47 283.637C1207.95 284.612 1206.74 284.983 1205.77 284.465L1189.2 275.661C1188.22 275.143 1187.85 273.932 1188.37 272.956L1269.82 119.648C1270.34 118.672 1271.55 118.302 1272.52 118.82Z" fill="#DDDBD1"/>
<path d="M181.15 85.9205L153.661 100.179C152.681 100.688 152.298 101.895 152.807 102.875L248.899 288.129C249.408 289.11 250.615 289.492 251.596 288.984L279.085 274.725C280.065 274.216 280.448 273.009 279.939 272.029L183.847 86.7749C183.338 85.7944 182.131 85.4119 181.15 85.9205Z" fill="#DDDBD1"/>
<path d="M1242.71 85.9205L1270.19 100.179C1271.18 100.688 1271.56 101.895 1271.05 102.875L1174.96 288.129C1174.45 289.11 1173.24 289.492 1172.26 288.984L1144.77 274.725C1143.79 274.216 1143.41 273.009 1143.92 272.029L1240.01 86.7749C1240.52 85.7944 1241.73 85.4119 1242.71 85.9205Z" fill="#DDDBD1"/>
<path d="M537.378 664.903L531.594 236H623.159V910.687H531.594L425.566 498.166V910.687H334.011V325.634H319.549L329.187 236H430.39L537.378 664.903ZM1092.73 325.634H975.146V528.041H1083.09L1073.46 617.685H975.146V910.687H883.58V325.634H869.128L878.766 236H1102.37L1092.73 325.634ZM1526.08 325.634H1439.33V910.687H1347.76V325.634H1261.02V236H1526.08V325.634ZM844.577 665.874H661.446V574.309H844.577V665.874Z" fill="#DDDBD1"/>
</g>
</svg>
